<?xml version="1.0" standalone="no"?>
<!DOCTYPE svg PUBLIC "-//W3C//DTD SVG 20010904//EN"
 "http://www.w3.org/TR/2001/REC-SVG-20010904/DTD/svg10.dtd">
<svg version="1.0" xmlns="http://www.w3.org/2000/svg"
 width="900.000000pt" height="900.000000pt" viewBox="0 0 900.000000 900.000000"
 preserveAspectRatio="xMidYMid meet">

<g transform="translate(0.000000,900.000000) scale(0.100000,-0.100000)"
fill="#000000" stroke="none">
<path d="M3995 8980 c-1223 -144 -2301 -749 -3056 -1715 -420 -537 -725 -1198
-858 -1860 -68 -339 -76 -435 -76 -905 0 -425 7 -548 45 -745 67 -346 119
-546 207 -785 224 -616 555 -1143 1008 -1609 737 -757 1649 -1207 2717 -1341
151 -19 206 -21 560 -17 216 2 434 9 483 16 1057 135 1968 584 2701 1332 475
486 823 1050 1046 1699 90 262 157 554 203 880 34 241 31 948 -6 1180 -34 217
-49 300 -80 430 -48 200 -136 480 -189 605 -5 11 -27 65 -50 120 -60 145 -188
396 -276 543 -560 932 -1418 1622 -2449 1969 -296 99 -598 165 -935 203 -234
27 -767 26 -995 0z m1015 -570 c855 -118 1621 -488 2234 -1080 382 -368 727
-878 906 -1335 17 -44 35 -89 40 -100 18 -37 99 -289 124 -385 103 -399 146
-798 126 -1195 -12 -243 -37 -431 -86 -655 -164 -752 -544 -1438 -1100 -1980
-882 -861 -2098 -1258 -3314 -1084 -832 119 -1589 493 -2194 1084 -652 637
-1053 1450 -1165 2365 -33 263 -33 682 -2 905 27 187 34 233 51 320 19 92 71
305 91 365 159 495 346 860 634 1240 651 859 1607 1409 2675 1540 187 22 201
23 525 20 239 -3 331 -8 455 -25z"/>
<path d="M5005 6732 c-148 -44 -284 -159 -348 -292 -107 -226 -58 -488 116
-617 200 -147 517 -107 701 88 251 265 186 679 -126 807 -84 34 -252 41 -343
14z"/>
<path d="M4649 5479 c-263 -28 -547 -160 -797 -372 -102 -86 -317 -309 -382
-396 -55 -74 -100 -159 -100 -191 0 -12 16 -38 35 -57 61 -61 94 -40 288 187
217 253 320 345 419 371 58 16 94 6 119 -34 28 -45 20 -94 -45 -257 -30 -74
-96 -241 -147 -370 -50 -129 -156 -397 -234 -595 -118 -297 -203 -536 -265
-740 -5 -16 -21 -87 -35 -156 -70 -348 -5 -531 214 -600 84 -27 230 -29 356
-5 311 60 704 299 1019 621 136 140 252 300 276 385 16 57 -26 130 -75 130
-30 0 -92 -58 -239 -223 -79 -89 -170 -188 -203 -219 -137 -130 -245 -171
-292 -112 -40 51 -25 150 54 354 45 118 87 231 315 855 255 694 264 722 287
850 20 118 13 257 -17 340 -30 81 -122 173 -204 204 -101 38 -197 46 -347 30z"/>
</g>
</svg>
